<svg xmlns="http://www.w3.org/2000/svg" viewBox="0 0 120 120" role="img" aria-label="المساعد الذكي">
  <defs>
    <linearGradient id="bpwBg" x1="0" y1="0" x2="1" y2="1">
      <stop offset="0" stop-color="#0a84e8"/>
      <stop offset="1" stop-color="#0057ad"/>
    </linearGradient>
    <!-- نقشة الشماغ الأحمر -->
    <pattern id="bpwSh" width="5" height="5" patternUnits="userSpaceOnUse" patternTransform="rotate(45)">
      <rect width="5" height="5" fill="#f7f2ef"/>
      <rect width="2.5" height="2.5" fill="#c8102e"/>
      <rect x="2.5" y="2.5" width="2.5" height="2.5" fill="#c8102e"/>
    </pattern>
    <clipPath id="bpwClip"><circle cx="60" cy="60" r="58"/></clipPath>
  </defs>

  <circle cx="60" cy="60" r="58" fill="url(#bpwBg)"/>

  <g clip-path="url(#bpwClip)">
    <!-- الشماغ: الطرفان الجانبيان خلف الرأس -->
    <path d="M34 44 Q25 80 32 106 L54 106 L47 64 Z" fill="url(#bpwSh)" stroke="#e5d8d2" stroke-width="0.8"/>
    <path d="M86 44 Q95 80 88 106 L66 106 L73 64 Z" fill="url(#bpwSh)" stroke="#e5d8d2" stroke-width="0.8"/>

    <!-- الثوب الأبيض -->
    <path d="M12 122 Q16 92 44 87 L60 94 L76 87 Q104 92 108 122 Z" fill="#fbfbf9"/>
    <path d="M12 122 Q16 92 44 87 L60 94 L76 87 Q104 92 108 122" fill="none" stroke="#e3e1da" stroke-width="1"/>
    <!-- الياقة -->
    <path d="M49 85 L60 96 L71 85 L71 92 L60 102 L49 92 Z" fill="#ffffff" stroke="#dcd9d0" stroke-width="1"/>
    <!-- الزر الذهبي -->
    <circle cx="60" cy="103" r="1.8" fill="#c9a227"/>

    <!-- الرقبة -->
    <path d="M52 72 h16 v13 l-8 9 -8 -9 Z" fill="#e2a878"/>

    <!-- الوجه -->
    <ellipse cx="60" cy="55" rx="20.5" ry="22" fill="#f2bd8d"/>
    <!-- الأذنان -->
    <ellipse cx="39.5" cy="57" rx="3.5" ry="5" fill="#e2a878"/>
    <ellipse cx="80.5" cy="57" rx="3.5" ry="5" fill="#e2a878"/>

    <!-- اللحية -->
    <path d="M41.5 55
             Q40.5 74 48 79.5
             Q54 84 60 84
             Q66 84 72 79.5
             Q79.5 74 78.5 55
             Q77 62 74 65.5
             L74 70 Q68 76.5 60 76.5 Q52 76.5 46 70 L46 65.5
             Q43 62 41.5 55 Z"
          fill="#2e2620"/>
    <!-- الشارب -->
    <path d="M50 66.5 Q55 63.5 60 65 Q65 63.5 70 66.5 Q65 69 60 68 Q55 69 50 66.5 Z" fill="#2e2620"/>

    <!-- الابتسامة والأسنان -->
    <path d="M50.5 68.5 Q60 76 69.5 68.5 Q65 73.5 60 73.5 Q55 73.5 50.5 68.5 Z" fill="#7a3b2e"/>
    <path d="M53 68.8 Q60 73.2 67 68.8 Q60 71.8 53 68.8 Z" fill="#ffffff"/>

    <!-- الأنف -->
    <path d="M60 55 Q58.2 61 60.8 62.5" fill="none" stroke="#d99c66" stroke-width="2" stroke-linecap="round"/>

    <!-- العينان -->
    <circle cx="51" cy="56.8" r="2.4" fill="#2b2b33"/>
    <circle cx="69" cy="56.8" r="2.4" fill="#2b2b33"/>
    <circle cx="51.8" cy="56.1" r="0.8" fill="#ffffff"/>
    <circle cx="69.8" cy="56.1" r="0.8" fill="#ffffff"/>

    <!-- الحاجبان -->
    <path d="M45.5 49 Q50.5 47.2 55 48.4" fill="none" stroke="#33291f" stroke-width="2.2" stroke-linecap="round"/>
    <path d="M65 48.4 Q69.5 47.2 74.5 49" fill="none" stroke="#33291f" stroke-width="2.2" stroke-linecap="round"/>

    <!-- النظارة: إطار علوي غامق وسفلي رفيع -->
    <rect x="42" y="51.2" width="16.5" height="3" rx="1.5" fill="#1e1e22"/>
    <rect x="61.5" y="51.2" width="16.5" height="3" rx="1.5" fill="#1e1e22"/>
    <path d="M43.5 54.2 v2.6 q0 4 4.5 4 h5.5 q4.5 0 4.5 -4 v-2.6" fill="none" stroke="#9a938b" stroke-width="1.2"/>
    <path d="M62 54.2 v2.6 q0 4 4.5 4 h5.5 q4.5 0 4.5 -4 v-2.6" fill="none" stroke="#9a938b" stroke-width="1.2"/>
    <path d="M58.5 53.6 h3" stroke="#b9b2a8" stroke-width="1.3"/>
    <path d="M42 52.6 L39 53.8" stroke="#1e1e22" stroke-width="1.5" stroke-linecap="round"/>
    <path d="M78 52.6 L81 53.8" stroke="#1e1e22" stroke-width="1.5" stroke-linecap="round"/>

    <!-- الشماغ: الجزء العلوي فوق الجبهة -->
    <path d="M60 19 Q89 19 88 54 Q88 45 81 42 Q84 29 60 29 Q36 29 39 42 Q32 45 32 54 Q31 19 60 19 Z" fill="url(#bpwSh)"/>
    <path d="M32 54 Q32 36 41 32 Q36 43 39 50 Z" fill="url(#bpwSh)"/>
    <path d="M88 54 Q88 36 79 32 Q84 43 81 50 Z" fill="url(#bpwSh)"/>

    <!-- العقال: طبقتان سميكتان -->
    <path d="M37 39 Q60 29 83 39" fill="none" stroke="#17181c" stroke-width="6" stroke-linecap="round"/>
    <path d="M37 45.5 Q60 36 83 45.5" fill="none" stroke="#26272c" stroke-width="5.4" stroke-linecap="round"/>
  </g>
</svg>
